<mxfile host="app.diagrams.net" modified="2023-12-13T06:33:04.456Z" agent="Mozilla/5.0 (Macintosh; Intel Mac OS X 10_15_7) AppleWebKit/537.36 (KHTML, like Gecko) Chrome/119.0.0.0 Safari/537.36" etag="JiDzmHcl1XZNY6x82cJP" version="22.1.8" type="google">
  <diagram id="prtHgNgQTEPvFCAcTncT" name="Page-1">
    <mxGraphModel grid="1" page="1" gridSize="10" guides="1" tooltips="1" connect="1" arrows="1" fold="1" pageScale="1" pageWidth="827" pageHeight="1169" math="0" shadow="0">
      <root>
        <mxCell id="0" />
        <mxCell id="1" parent="0" />
        <mxCell id="_mQ8_jNMQouPFwOqxvFZ-4" value="CityHubLogiLA: Business Process Map" style="swimlane;childLayout=stackLayout;resizeParent=1;resizeParentMax=0;horizontal=1;startSize=20;horizontalStack=0;html=1;" vertex="1" parent="1">
          <mxGeometry x="170" y="140" width="1620" height="1060" as="geometry" />
        </mxCell>
        <mxCell id="_mQ8_jNMQouPFwOqxvFZ-5" value="Applicant" style="swimlane;startSize=20;horizontal=0;html=1;" vertex="1" parent="_mQ8_jNMQouPFwOqxvFZ-4">
          <mxGeometry y="20" width="1620" height="120" as="geometry" />
        </mxCell>
        <mxCell id="_mQ8_jNMQouPFwOqxvFZ-10" style="edgeStyle=orthogonalEdgeStyle;rounded=0;orthogonalLoop=1;jettySize=auto;html=1;exitX=1;exitY=0.5;exitDx=0;exitDy=0;entryX=0;entryY=0.5;entryDx=0;entryDy=0;" edge="1" parent="_mQ8_jNMQouPFwOqxvFZ-5" source="_mQ8_jNMQouPFwOqxvFZ-8" target="_mQ8_jNMQouPFwOqxvFZ-9">
          <mxGeometry relative="1" as="geometry" />
        </mxCell>
        <mxCell id="_mQ8_jNMQouPFwOqxvFZ-8" value="Start" style="ellipse;whiteSpace=wrap;html=1;aspect=fixed;" vertex="1" parent="_mQ8_jNMQouPFwOqxvFZ-5">
          <mxGeometry x="40" y="20" width="80" height="80" as="geometry" />
        </mxCell>
        <mxCell id="_mQ8_jNMQouPFwOqxvFZ-9" value="Applicants submit applications" style="rounded=1;whiteSpace=wrap;html=1;" vertex="1" parent="_mQ8_jNMQouPFwOqxvFZ-5">
          <mxGeometry x="170" y="27.5" width="120" height="65" as="geometry" />
        </mxCell>
        <mxCell id="_mQ8_jNMQouPFwOqxvFZ-6" value="HR Department" style="swimlane;startSize=20;horizontal=0;html=1;" vertex="1" parent="_mQ8_jNMQouPFwOqxvFZ-4">
          <mxGeometry y="140" width="1620" height="270" as="geometry" />
        </mxCell>
        <mxCell id="_mQ8_jNMQouPFwOqxvFZ-13" value="" style="edgeStyle=orthogonalEdgeStyle;rounded=0;orthogonalLoop=1;jettySize=auto;html=1;" edge="1" parent="_mQ8_jNMQouPFwOqxvFZ-6" source="_mQ8_jNMQouPFwOqxvFZ-11" target="_mQ8_jNMQouPFwOqxvFZ-12">
          <mxGeometry relative="1" as="geometry" />
        </mxCell>
        <mxCell id="_mQ8_jNMQouPFwOqxvFZ-11" value="HR reviews applications" style="rounded=1;whiteSpace=wrap;html=1;" vertex="1" parent="_mQ8_jNMQouPFwOqxvFZ-6">
          <mxGeometry x="170" y="30" width="120" height="60" as="geometry" />
        </mxCell>
        <mxCell id="_mQ8_jNMQouPFwOqxvFZ-17" value="" style="edgeStyle=orthogonalEdgeStyle;rounded=0;orthogonalLoop=1;jettySize=auto;html=1;" edge="1" parent="_mQ8_jNMQouPFwOqxvFZ-6" source="_mQ8_jNMQouPFwOqxvFZ-12" target="_mQ8_jNMQouPFwOqxvFZ-16">
          <mxGeometry relative="1" as="geometry" />
        </mxCell>
        <mxCell id="_mQ8_jNMQouPFwOqxvFZ-12" value="Conducts Interviews" style="whiteSpace=wrap;html=1;rounded=1;" vertex="1" parent="_mQ8_jNMQouPFwOqxvFZ-6">
          <mxGeometry x="370" y="30" width="120" height="60" as="geometry" />
        </mxCell>
        <mxCell id="_mQ8_jNMQouPFwOqxvFZ-19" value="" style="edgeStyle=orthogonalEdgeStyle;rounded=0;orthogonalLoop=1;jettySize=auto;html=1;" edge="1" parent="_mQ8_jNMQouPFwOqxvFZ-6" source="_mQ8_jNMQouPFwOqxvFZ-16" target="_mQ8_jNMQouPFwOqxvFZ-18">
          <mxGeometry relative="1" as="geometry" />
        </mxCell>
        <mxCell id="_mQ8_jNMQouPFwOqxvFZ-16" value="Makes Offer?" style="rhombus;whiteSpace=wrap;html=1;rounded=1;" vertex="1" parent="_mQ8_jNMQouPFwOqxvFZ-6">
          <mxGeometry x="590" y="10" width="110" height="100" as="geometry" />
        </mxCell>
        <mxCell id="_mQ8_jNMQouPFwOqxvFZ-18" value="Sends Offer" style="whiteSpace=wrap;html=1;rounded=1;" vertex="1" parent="_mQ8_jNMQouPFwOqxvFZ-6">
          <mxGeometry x="775" y="30" width="120" height="60" as="geometry" />
        </mxCell>
        <mxCell id="_mQ8_jNMQouPFwOqxvFZ-23" value="" style="edgeStyle=orthogonalEdgeStyle;rounded=0;orthogonalLoop=1;jettySize=auto;html=1;" edge="1" parent="_mQ8_jNMQouPFwOqxvFZ-6" source="_mQ8_jNMQouPFwOqxvFZ-20" target="_mQ8_jNMQouPFwOqxvFZ-22">
          <mxGeometry relative="1" as="geometry" />
        </mxCell>
        <mxCell id="_mQ8_jNMQouPFwOqxvFZ-20" value="Sends Rejection Letter" style="whiteSpace=wrap;html=1;rounded=1;" vertex="1" parent="_mQ8_jNMQouPFwOqxvFZ-6">
          <mxGeometry x="400" y="170" width="120" height="60" as="geometry" />
        </mxCell>
        <mxCell id="_mQ8_jNMQouPFwOqxvFZ-21" value="" style="edgeStyle=orthogonalEdgeStyle;rounded=0;orthogonalLoop=1;jettySize=auto;html=1;entryX=1;entryY=0.5;entryDx=0;entryDy=0;exitX=0.5;exitY=1;exitDx=0;exitDy=0;" edge="1" parent="_mQ8_jNMQouPFwOqxvFZ-6" source="_mQ8_jNMQouPFwOqxvFZ-16" target="_mQ8_jNMQouPFwOqxvFZ-20">
          <mxGeometry relative="1" as="geometry" />
        </mxCell>
        <mxCell id="_mQ8_jNMQouPFwOqxvFZ-22" value="End" style="ellipse;whiteSpace=wrap;html=1;rounded=1;strokeWidth=10;" vertex="1" parent="_mQ8_jNMQouPFwOqxvFZ-6">
          <mxGeometry x="220" y="160" width="80" height="80" as="geometry" />
        </mxCell>
        <mxCell id="_mQ8_jNMQouPFwOqxvFZ-55" value="Assigned Shifts" style="whiteSpace=wrap;html=1;rounded=1;" vertex="1" parent="_mQ8_jNMQouPFwOqxvFZ-6">
          <mxGeometry x="860" y="170" width="120" height="60" as="geometry" />
        </mxCell>
        <mxCell id="_mQ8_jNMQouPFwOqxvFZ-7" value="Staff" style="swimlane;startSize=20;horizontal=0;html=1;" vertex="1" parent="_mQ8_jNMQouPFwOqxvFZ-4">
          <mxGeometry y="410" width="1620" height="150" as="geometry" />
        </mxCell>
        <mxCell id="_mQ8_jNMQouPFwOqxvFZ-29" value="" style="edgeStyle=orthogonalEdgeStyle;rounded=0;orthogonalLoop=1;jettySize=auto;html=1;" edge="1" parent="_mQ8_jNMQouPFwOqxvFZ-7" source="_mQ8_jNMQouPFwOqxvFZ-26" target="_mQ8_jNMQouPFwOqxvFZ-28">
          <mxGeometry relative="1" as="geometry" />
        </mxCell>
        <mxCell id="_mQ8_jNMQouPFwOqxvFZ-31" value="" style="edgeStyle=orthogonalEdgeStyle;rounded=0;orthogonalLoop=1;jettySize=auto;html=1;" edge="1" parent="_mQ8_jNMQouPFwOqxvFZ-7" source="_mQ8_jNMQouPFwOqxvFZ-26" target="_mQ8_jNMQouPFwOqxvFZ-30">
          <mxGeometry relative="1" as="geometry" />
        </mxCell>
        <mxCell id="_mQ8_jNMQouPFwOqxvFZ-26" value="Accept Offer?" style="rhombus;whiteSpace=wrap;html=1;rounded=1;" vertex="1" parent="_mQ8_jNMQouPFwOqxvFZ-7">
          <mxGeometry x="542.5" y="25" width="105" height="100" as="geometry" />
        </mxCell>
        <mxCell id="_mQ8_jNMQouPFwOqxvFZ-28" value="End" style="ellipse;whiteSpace=wrap;html=1;rounded=1;strokeWidth=10;" vertex="1" parent="_mQ8_jNMQouPFwOqxvFZ-7">
          <mxGeometry x="370" y="35" width="80" height="80" as="geometry" />
        </mxCell>
        <mxCell id="_mQ8_jNMQouPFwOqxvFZ-30" value="Attend Training" style="whiteSpace=wrap;html=1;rounded=1;" vertex="1" parent="_mQ8_jNMQouPFwOqxvFZ-7">
          <mxGeometry x="720" y="45" width="120" height="60" as="geometry" />
        </mxCell>
        <mxCell id="_mQ8_jNMQouPFwOqxvFZ-32" value="Client" style="swimlane;startSize=20;horizontal=0;html=1;" vertex="1" parent="_mQ8_jNMQouPFwOqxvFZ-4">
          <mxGeometry y="560" width="1620" height="160" as="geometry" />
        </mxCell>
        <mxCell id="_mQ8_jNMQouPFwOqxvFZ-38" style="edgeStyle=orthogonalEdgeStyle;rounded=0;orthogonalLoop=1;jettySize=auto;html=1;exitX=1;exitY=0.5;exitDx=0;exitDy=0;entryX=0;entryY=0.5;entryDx=0;entryDy=0;" edge="1" parent="_mQ8_jNMQouPFwOqxvFZ-32" source="_mQ8_jNMQouPFwOqxvFZ-36" target="_mQ8_jNMQouPFwOqxvFZ-37">
          <mxGeometry relative="1" as="geometry" />
        </mxCell>
        <mxCell id="_mQ8_jNMQouPFwOqxvFZ-36" value="Start" style="ellipse;whiteSpace=wrap;html=1;rounded=1;" vertex="1" parent="_mQ8_jNMQouPFwOqxvFZ-32">
          <mxGeometry x="260" y="40" width="80" height="80" as="geometry" />
        </mxCell>
        <mxCell id="_mQ8_jNMQouPFwOqxvFZ-37" value="Places an order" style="whiteSpace=wrap;html=1;rounded=1;" vertex="1" parent="_mQ8_jNMQouPFwOqxvFZ-32">
          <mxGeometry x="390" y="50" width="120" height="60" as="geometry" />
        </mxCell>
        <mxCell id="_mQ8_jNMQouPFwOqxvFZ-80" value="" style="edgeStyle=orthogonalEdgeStyle;rounded=0;orthogonalLoop=1;jettySize=auto;html=1;" edge="1" parent="_mQ8_jNMQouPFwOqxvFZ-32" source="_mQ8_jNMQouPFwOqxvFZ-77" target="_mQ8_jNMQouPFwOqxvFZ-79">
          <mxGeometry relative="1" as="geometry" />
        </mxCell>
        <mxCell id="_mQ8_jNMQouPFwOqxvFZ-77" value="Receives Package" style="whiteSpace=wrap;html=1;rounded=1;" vertex="1" parent="_mQ8_jNMQouPFwOqxvFZ-32">
          <mxGeometry x="1290" y="45" width="120" height="60" as="geometry" />
        </mxCell>
        <mxCell id="_mQ8_jNMQouPFwOqxvFZ-79" value="End" style="ellipse;whiteSpace=wrap;html=1;rounded=1;strokeWidth=10;" vertex="1" parent="_mQ8_jNMQouPFwOqxvFZ-32">
          <mxGeometry x="1510" y="35" width="80" height="80" as="geometry" />
        </mxCell>
        <mxCell id="_mQ8_jNMQouPFwOqxvFZ-27" value="" style="edgeStyle=orthogonalEdgeStyle;rounded=0;orthogonalLoop=1;jettySize=auto;html=1;exitX=0.5;exitY=1;exitDx=0;exitDy=0;" edge="1" parent="_mQ8_jNMQouPFwOqxvFZ-4" source="_mQ8_jNMQouPFwOqxvFZ-18" target="_mQ8_jNMQouPFwOqxvFZ-26">
          <mxGeometry relative="1" as="geometry">
            <Array as="points">
              <mxPoint x="835" y="370" />
              <mxPoint x="595" y="370" />
            </Array>
          </mxGeometry>
        </mxCell>
        <mxCell id="_mQ8_jNMQouPFwOqxvFZ-40" value="" style="edgeStyle=orthogonalEdgeStyle;rounded=0;orthogonalLoop=1;jettySize=auto;html=1;" edge="1" parent="_mQ8_jNMQouPFwOqxvFZ-4" source="_mQ8_jNMQouPFwOqxvFZ-37" target="_mQ8_jNMQouPFwOqxvFZ-39">
          <mxGeometry relative="1" as="geometry" />
        </mxCell>
        <mxCell id="_mQ8_jNMQouPFwOqxvFZ-41" value="Order" style="swimlane;startSize=20;horizontal=0;html=1;" vertex="1" parent="_mQ8_jNMQouPFwOqxvFZ-4">
          <mxGeometry y="720" width="1620" height="170" as="geometry" />
        </mxCell>
        <mxCell id="_mQ8_jNMQouPFwOqxvFZ-42" style="edgeStyle=orthogonalEdgeStyle;rounded=0;orthogonalLoop=1;jettySize=auto;html=1;exitX=1;exitY=0.5;exitDx=0;exitDy=0;entryX=0;entryY=0.5;entryDx=0;entryDy=0;" edge="1" parent="_mQ8_jNMQouPFwOqxvFZ-41">
          <mxGeometry relative="1" as="geometry">
            <mxPoint x="170" y="75" as="targetPoint" />
          </mxGeometry>
        </mxCell>
        <mxCell id="_mQ8_jNMQouPFwOqxvFZ-44" value="" style="edgeStyle=orthogonalEdgeStyle;rounded=0;orthogonalLoop=1;jettySize=auto;html=1;" edge="1" parent="_mQ8_jNMQouPFwOqxvFZ-41">
          <mxGeometry relative="1" as="geometry">
            <mxPoint x="230" y="185" as="targetPoint" />
          </mxGeometry>
        </mxCell>
        <mxCell id="_mQ8_jNMQouPFwOqxvFZ-48" value="" style="edgeStyle=orthogonalEdgeStyle;rounded=0;orthogonalLoop=1;jettySize=auto;html=1;" edge="1" parent="_mQ8_jNMQouPFwOqxvFZ-41" source="_mQ8_jNMQouPFwOqxvFZ-39" target="_mQ8_jNMQouPFwOqxvFZ-47">
          <mxGeometry relative="1" as="geometry" />
        </mxCell>
        <mxCell id="_mQ8_jNMQouPFwOqxvFZ-39" value="Creates order details" style="whiteSpace=wrap;html=1;rounded=1;" vertex="1" parent="_mQ8_jNMQouPFwOqxvFZ-41">
          <mxGeometry x="390" y="55" width="120" height="60" as="geometry" />
        </mxCell>
        <mxCell id="_mQ8_jNMQouPFwOqxvFZ-47" value="Generates an Invoice" style="whiteSpace=wrap;html=1;rounded=1;" vertex="1" parent="_mQ8_jNMQouPFwOqxvFZ-41">
          <mxGeometry x="580" y="55" width="120" height="60" as="geometry" />
        </mxCell>
        <mxCell id="_mQ8_jNMQouPFwOqxvFZ-64" value="" style="edgeStyle=orthogonalEdgeStyle;rounded=0;orthogonalLoop=1;jettySize=auto;html=1;" edge="1" parent="_mQ8_jNMQouPFwOqxvFZ-41" source="_mQ8_jNMQouPFwOqxvFZ-62" target="_mQ8_jNMQouPFwOqxvFZ-63">
          <mxGeometry relative="1" as="geometry" />
        </mxCell>
        <mxCell id="_mQ8_jNMQouPFwOqxvFZ-62" value="Assigned&amp;nbsp; Packaging" style="rounded=1;whiteSpace=wrap;html=1;" vertex="1" parent="_mQ8_jNMQouPFwOqxvFZ-41">
          <mxGeometry x="930" y="55" width="120" height="60" as="geometry" />
        </mxCell>
        <mxCell id="_mQ8_jNMQouPFwOqxvFZ-61" style="edgeStyle=orthogonalEdgeStyle;rounded=0;orthogonalLoop=1;jettySize=auto;html=1;exitX=1;exitY=0.5;exitDx=0;exitDy=0;entryX=0;entryY=0.5;entryDx=0;entryDy=0;" edge="1" parent="_mQ8_jNMQouPFwOqxvFZ-41" source="_mQ8_jNMQouPFwOqxvFZ-47" target="_mQ8_jNMQouPFwOqxvFZ-62">
          <mxGeometry relative="1" as="geometry">
            <mxPoint x="430" y="225" as="targetPoint" />
          </mxGeometry>
        </mxCell>
        <mxCell id="_mQ8_jNMQouPFwOqxvFZ-63" value="Packaging perofrmed" style="whiteSpace=wrap;html=1;rounded=1;" vertex="1" parent="_mQ8_jNMQouPFwOqxvFZ-41">
          <mxGeometry x="1110" y="55" width="120" height="60" as="geometry" />
        </mxCell>
        <mxCell id="_mQ8_jNMQouPFwOqxvFZ-65" value="Shipment" style="swimlane;startSize=20;horizontal=0;html=1;" vertex="1" parent="_mQ8_jNMQouPFwOqxvFZ-4">
          <mxGeometry y="890" width="1620" height="170" as="geometry" />
        </mxCell>
        <mxCell id="_mQ8_jNMQouPFwOqxvFZ-66" style="edgeStyle=orthogonalEdgeStyle;rounded=0;orthogonalLoop=1;jettySize=auto;html=1;exitX=1;exitY=0.5;exitDx=0;exitDy=0;entryX=0;entryY=0.5;entryDx=0;entryDy=0;" edge="1" parent="_mQ8_jNMQouPFwOqxvFZ-65">
          <mxGeometry relative="1" as="geometry">
            <mxPoint x="170" y="75" as="targetPoint" />
          </mxGeometry>
        </mxCell>
        <mxCell id="_mQ8_jNMQouPFwOqxvFZ-67" value="" style="edgeStyle=orthogonalEdgeStyle;rounded=0;orthogonalLoop=1;jettySize=auto;html=1;" edge="1" parent="_mQ8_jNMQouPFwOqxvFZ-65">
          <mxGeometry relative="1" as="geometry">
            <mxPoint x="230" y="185" as="targetPoint" />
          </mxGeometry>
        </mxCell>
        <mxCell id="_mQ8_jNMQouPFwOqxvFZ-71" value="x" style="edgeStyle=orthogonalEdgeStyle;rounded=0;orthogonalLoop=1;jettySize=auto;html=1;" edge="1" parent="_mQ8_jNMQouPFwOqxvFZ-65" source="_mQ8_jNMQouPFwOqxvFZ-72" target="_mQ8_jNMQouPFwOqxvFZ-74">
          <mxGeometry relative="1" as="geometry" />
        </mxCell>
        <mxCell id="_mQ8_jNMQouPFwOqxvFZ-72" value="Shipment Details Processed" style="rounded=1;whiteSpace=wrap;html=1;" vertex="1" parent="_mQ8_jNMQouPFwOqxvFZ-65">
          <mxGeometry x="1110" y="55" width="120" height="60" as="geometry" />
        </mxCell>
        <mxCell id="_mQ8_jNMQouPFwOqxvFZ-74" value="Product(s) Shipped" style="whiteSpace=wrap;html=1;rounded=1;" vertex="1" parent="_mQ8_jNMQouPFwOqxvFZ-65">
          <mxGeometry x="1290" y="55" width="120" height="60" as="geometry" />
        </mxCell>
        <mxCell id="_mQ8_jNMQouPFwOqxvFZ-56" value="" style="edgeStyle=orthogonalEdgeStyle;rounded=0;orthogonalLoop=1;jettySize=auto;html=1;" edge="1" parent="_mQ8_jNMQouPFwOqxvFZ-4" source="_mQ8_jNMQouPFwOqxvFZ-30" target="_mQ8_jNMQouPFwOqxvFZ-55">
          <mxGeometry relative="1" as="geometry" />
        </mxCell>
        <mxCell id="_mQ8_jNMQouPFwOqxvFZ-58" value="" style="edgeStyle=orthogonalEdgeStyle;rounded=0;orthogonalLoop=1;jettySize=auto;html=1;" edge="1" parent="_mQ8_jNMQouPFwOqxvFZ-4" source="_mQ8_jNMQouPFwOqxvFZ-55" target="_mQ8_jNMQouPFwOqxvFZ-62">
          <mxGeometry relative="1" as="geometry">
            <mxPoint x="1050" y="830" as="targetPoint" />
            <Array as="points">
              <mxPoint x="1000" y="340" />
            </Array>
          </mxGeometry>
        </mxCell>
        <mxCell id="_mQ8_jNMQouPFwOqxvFZ-76" style="edgeStyle=orthogonalEdgeStyle;rounded=0;orthogonalLoop=1;jettySize=auto;html=1;exitX=0.5;exitY=1;exitDx=0;exitDy=0;entryX=0.5;entryY=0;entryDx=0;entryDy=0;" edge="1" parent="_mQ8_jNMQouPFwOqxvFZ-4" source="_mQ8_jNMQouPFwOqxvFZ-63" target="_mQ8_jNMQouPFwOqxvFZ-72">
          <mxGeometry relative="1" as="geometry" />
        </mxCell>
        <mxCell id="_mQ8_jNMQouPFwOqxvFZ-78" value="" style="edgeStyle=orthogonalEdgeStyle;rounded=0;orthogonalLoop=1;jettySize=auto;html=1;" edge="1" parent="_mQ8_jNMQouPFwOqxvFZ-4" source="_mQ8_jNMQouPFwOqxvFZ-74" target="_mQ8_jNMQouPFwOqxvFZ-77">
          <mxGeometry relative="1" as="geometry" />
        </mxCell>
      </root>
    </mxGraphModel>
  </diagram>
</mxfile>
